<svg width="30" height="30" viewBox="0 0 30 30" fill="none" xmlns="http://www.w3.org/2000/svg">
<g clip-path="url(#clip0_772_3090)">
<path d="M15 29.125L10.8125 25H5V19.1875L0.875 15L5 10.8125V5H10.8125L15 0.875L19.1875 5H25V10.8125L29.125 15L25 19.1875V25H19.1875L15 29.125ZM15 21.25C16.7292 21.25 18.2031 20.6406 19.4219 19.4219C20.6406 18.2031 21.25 16.7292 21.25 15C21.25 13.2708 20.6406 11.7969 19.4219 10.5781C18.2031 9.35938 16.7292 8.75 15 8.75C13.2708 8.75 11.7969 9.35938 10.5781 10.5781C9.35938 11.7969 8.75 13.2708 8.75 15C8.75 16.7292 9.35938 18.2031 10.5781 19.4219C11.7969 20.6406 13.2708 21.25 15 21.25ZM15 25.625L18.125 22.5H22.5V18.125L25.625 15L22.5 11.875V7.5H18.125L15 4.375L11.875 7.5H7.5V11.875L4.375 15L7.5 18.125V22.5H11.875L15 25.625Z" fill="#F9D067"/>
</g>
<defs>
<clipPath id="clip0_772_3090">
<rect width="30" height="30" fill="white"/>
</clipPath>
</defs>
</svg>
