<svg width="12" height="15" viewBox="0 0 12 15" fill="none" xmlns="http://www.w3.org/2000/svg">
<path fill-rule="evenodd" clip-rule="evenodd" d="M6.08227 14.4C5.96508 14.517 5.80622 14.5828 5.6406 14.5828C5.47497 14.5828 5.31612 14.517 5.19893 14.4L0.198932 9.39998C0.137527 9.34276 0.088275 9.27376 0.0541143 9.19709C0.0199547 9.12043 0.00158691 9.03767 0.000106812 8.95375C-0.00137424 8.86983 0.0140629 8.78647 0.0454969 8.70865C0.076931 8.63083 0.123718 8.56013 0.183067 8.50078C0.242416 8.44143 0.313111 8.39465 0.390935 8.36321C0.468759 8.33178 0.552115 8.31634 0.636034 8.31782C0.719954 8.3193 0.802715 8.33767 0.879381 8.37183C0.956048 8.40599 1.02505 8.45524 1.08227 8.51665L5.0156 12.45L5.0156 0.62498C5.0156 0.459219 5.08145 0.300247 5.19866 0.183038C5.31587 0.0658274 5.47484 -2.00272e-05 5.6406 -2.00272e-05C5.80636 -2.00272e-05 5.96533 0.0658274 6.08254 0.183038C6.19975 0.300247 6.2656 0.459219 6.2656 0.62498L6.2656 12.45L10.1989 8.51665C10.2562 8.45524 10.3252 8.40599 10.4018 8.37183C10.4785 8.33767 10.5612 8.3193 10.6452 8.31782C10.7291 8.31634 10.8124 8.33178 10.8903 8.36321C10.9681 8.39465 11.0388 8.44143 11.0981 8.50078C11.1575 8.56013 11.2043 8.63083 11.2357 8.70865C11.2671 8.78647 11.2826 8.86983 11.2811 8.95375C11.2796 9.03767 11.2612 9.12043 11.2271 9.19709C11.1929 9.27376 11.1437 9.34276 11.0823 9.39998L6.08227 14.4Z" fill="#0061FE"/>
</svg>
