<svg width="12" height="16" viewBox="0 0 12 16" fill="none" xmlns="http://www.w3.org/2000/svg">
<path fill-rule="evenodd" clip-rule="evenodd" d="M6.08226 15.1086C5.96507 15.2256 5.80621 15.2914 5.64059 15.2914C5.47496 15.2914 5.31611 15.2256 5.19892 15.1086L0.198922 10.1086C0.137517 10.0514 0.0882654 9.98238 0.0541048 9.90571C0.0199451 9.82905 0.00157738 9.74629 9.72748e-05 9.66237C-0.00138378 9.57845 0.0140533 9.49509 0.0454874 9.41727C0.0769215 9.33944 0.123709 9.26875 0.183058 9.2094C0.242407 9.15005 0.313102 9.10326 0.390925 9.07183C0.468749 9.04039 0.552106 9.02496 0.636024 9.02644C0.719944 9.02792 0.802706 9.04629 0.879372 9.08045C0.956038 9.11461 1.02504 9.16386 1.08226 9.22527L5.01559 13.1586L5.01559 1.3336C5.01559 1.16784 5.08144 1.00887 5.19865 0.891656C5.31586 0.774446 5.47483 0.708598 5.64059 0.708598C5.80635 0.708598 5.96532 0.774446 6.08253 0.891656C6.19974 1.00887 6.26559 1.16784 6.26559 1.3336L6.26559 13.1586L10.1989 9.22527C10.2561 9.16386 10.3251 9.11461 10.4018 9.08045C10.4785 9.04629 10.5612 9.02792 10.6452 9.02644C10.7291 9.02496 10.8124 9.04039 10.8903 9.07183C10.9681 9.10326 11.0388 9.15005 11.0981 9.2094C11.1575 9.26875 11.2043 9.33944 11.2357 9.41727C11.2671 9.49509 11.2826 9.57845 11.2811 9.66237C11.2796 9.74629 11.2612 9.82905 11.2271 9.90571C11.1929 9.98238 11.1437 10.0514 11.0823 10.1086L6.08226 15.1086Z" fill="#0061FE"/>
</svg>
