<svg width="140" height="43" viewBox="0 0 140 43" fill="none" xmlns="http://www.w3.org/2000/svg">
<path d="M56.8214 40V4.64844H63.1468V34.6289H78.7169V40H56.8214ZM83.7772 40V4.64844H106.695V9.97075H90.1026V19.6386H105.478V24.961H90.1026V34.6289H106.792V40H83.7772ZM111.22 9.97075V4.64844H139.295V9.97075H128.444V40H122.119V9.97075H111.22Z" fill="url(#paint0_linear_545_265)"/>
<path d="M30.3131 0H12.4561C5.5768 0 0 5.59644 0 12.5V30.4199C0 37.3234 5.5768 42.9199 12.4561 42.9199H30.3131C37.1925 42.9199 42.7693 37.3234 42.7693 30.4199V12.5C42.7693 5.59644 37.1925 0 30.3131 0Z" fill="url(#paint1_linear_545_265)"/>
<path d="M36.1693 21.125C36.1693 18.1241 35.2825 15.1906 33.6212 12.6954C31.9598 10.2002 29.5984 8.25548 26.8358 7.1071C24.073 5.95873 21.033 5.65823 18.1 6.24373C15.1671 6.8291 12.473 8.27423 10.3585 10.3961C8.24397 12.5181 6.80396 15.2216 6.22058 18.1649C5.63719 21.1081 5.93661 24.1589 7.08096 26.9314C8.22533 29.7039 10.1633 32.0736 12.6497 33.7407C15.1361 35.408 18.0593 36.2979 21.0496 36.2979V33.4122C18.628 33.4122 16.2608 32.6916 14.2472 31.3415C12.2337 29.9912 10.6643 28.0722 9.73762 25.8271C8.8109 23.5819 8.56843 21.1114 9.04086 18.7279C9.51331 16.3444 10.6794 14.155 12.3918 12.4366C14.1042 10.7182 16.2859 9.54798 18.6609 9.07385C21.0361 8.59973 23.498 8.8431 25.7353 9.7731C27.9726 10.7031 29.8849 12.278 31.2303 14.2986C32.5757 16.3192 33.2938 18.6949 33.2938 21.125H36.1693Z" fill="white"/>
<path d="M16.4976 30.5967C17.3511 30.5967 18.043 29.9024 18.043 29.0459C18.043 28.1894 17.3511 27.4951 16.4976 27.4951C15.6442 27.4951 14.9523 28.1894 14.9523 29.0459C14.9523 29.9024 15.6442 30.5967 16.4976 30.5967Z" fill="white"/>
<path d="M13.6572 27.4961C14.0954 27.4961 14.4507 27.1395 14.4507 26.6997C14.4507 26.2599 14.0954 25.9033 13.6572 25.9033C13.2189 25.9033 12.8636 26.2599 12.8636 26.6997C12.8636 27.1395 13.2189 27.4961 13.6572 27.4961Z" fill="white"/>
<path d="M14.1768 18.2404C14.3167 18.0799 14.5623 18.0707 14.7139 18.2201L30.7187 33.9942C30.9362 34.2086 30.9378 34.5598 30.7222 34.7761C30.507 34.9922 30.1576 34.9909 29.9438 34.7734L14.1919 18.7449C14.056 18.6067 14.0494 18.3866 14.1768 18.2404Z" fill="white"/>
<path d="M13.2195 19.361C13.3594 19.2006 13.6049 19.1912 13.7565 19.3406L29.7613 35.1147C29.9789 35.3292 29.9804 35.6805 29.7648 35.8967C29.5495 36.1129 29.2002 36.1116 28.9864 35.8941L13.2345 19.8656C13.0986 19.7274 13.0921 19.5072 13.2195 19.361Z" fill="white"/>
<path d="M22.3672 18.5096C22.7445 18.1311 23.3527 18.12 23.7433 18.4847L34.8959 28.8957C35.574 29.5288 35.5933 30.6001 34.9384 31.2573C34.2779 31.9201 33.1994 31.894 32.5716 31.1998L22.3342 19.8816C21.9789 19.4886 21.9933 18.8848 22.3672 18.5096Z" fill="white"/>
<path d="M19.2845 19.4192C20.805 20.945 22.9446 21.2718 24.0635 20.149C25.1823 19.0262 24.8567 16.879 23.3362 15.3531C21.8157 13.8273 19.6761 13.5005 18.5573 14.6233C17.4384 15.7461 17.764 17.8933 19.2845 19.4192Z" fill="white"/>
<defs>
<linearGradient id="paint0_linear_545_265" x1="44.2193" y1="-0.625001" x2="139.611" y2="39.7587" gradientUnits="userSpaceOnUse">
<stop stop-color="#FF3A3A"/>
<stop offset="1" stop-color="#FF8957"/>
</linearGradient>
<linearGradient id="paint1_linear_545_265" x1="7.05178" y1="7.652" x2="36.6795" y2="36.6597" gradientUnits="userSpaceOnUse">
<stop stop-color="#FF3939"/>
<stop offset="0.489583" stop-color="#FF6148"/>
<stop offset="1" stop-color="#FF8956"/>
</linearGradient>
</defs>
</svg>
