<svg width="30" height="31" viewBox="0 0 30 31" fill="none" xmlns="http://www.w3.org/2000/svg">
<path d="M25.9375 25.5L20.8125 10.75C20.6458 10.2708 20.3854 9.90104 20.0313 9.64062C19.6771 9.38021 19.2604 9.25 18.7812 9.25C18.3021 9.25 17.8802 9.38542 17.5156 9.65625C17.151 9.92708 16.8854 10.3021 16.7188 10.7812L14.0313 19.75C13.8438 20.3333 13.5052 20.8125 13.0156 21.1875C12.526 21.5625 11.9688 21.75 11.3438 21.75C10.7812 21.75 10.2604 21.599 9.78125 21.2969C9.30208 20.9948 8.95833 20.5729 8.75 20.0312L7.90625 17.9688L4.21875 25.5H25.9375Z" fill="#30C285"/>
<path fill-rule="evenodd" clip-rule="evenodd" d="M5.75 16.875L1.4375 25.5H4.21875L7.90625 17.9688L8.75 20.0312C8.95833 20.5729 9.30208 20.9948 9.78125 21.2969C10.2604 21.599 10.7812 21.75 11.3438 21.75C11.9688 21.75 12.526 21.5625 13.0156 21.1875C13.5052 20.8125 13.8438 20.3333 14.0313 19.75L16.7188 10.7812C16.8854 10.3021 17.151 9.92708 17.5156 9.65625C17.8802 9.38542 18.3021 9.25 18.7812 9.25C19.2604 9.25 19.6771 9.38021 20.0313 9.64062C20.3854 9.90104 20.6458 10.2708 20.8125 10.75L25.9375 25.5H28.5938L23.1875 9.96875C22.875 9.01042 22.3177 8.23438 21.5156 7.64062C20.7135 7.04688 19.8021 6.75 18.7812 6.75C17.7396 6.75 16.8073 7.05208 15.9844 7.65625C15.1615 8.26042 14.6042 9.0625 14.3125 10.0625L11.625 19.0312C11.5833 19.1562 11.4896 19.224 11.3438 19.2344C11.1979 19.2448 11.1042 19.1875 11.0625 19.0625L10.2188 17C10.0312 16.5208 9.72917 16.151 9.3125 15.8906C8.89583 15.6302 8.4375 15.5 7.9375 15.5C7.45833 15.5 7.02604 15.625 6.64062 15.875C6.25521 16.125 5.95833 16.4583 5.75 16.875Z" fill="#30C285"/>
<path d="M7.5 10.5C7.85417 10.5 8.15104 10.3802 8.39062 10.1406C8.63021 9.90104 8.75 9.60417 8.75 9.25C8.75 8.89583 8.63021 8.59896 8.39062 8.35937C8.15104 8.11979 7.85417 8 7.5 8C7.14583 8 6.84896 8.11979 6.60938 8.35937C6.36979 8.59896 6.25 8.89583 6.25 9.25C6.25 9.60417 6.36979 9.90104 6.60938 10.1406C6.84896 10.3802 7.14583 10.5 7.5 10.5Z" fill="#F9D067"/>
<path fill-rule="evenodd" clip-rule="evenodd" d="M7.5 13C6.45833 13 5.57292 12.6302 4.84375 11.8906C4.11458 11.151 3.75 10.2708 3.75 9.25C3.75 8.20833 4.11458 7.32292 4.84375 6.59375C5.57292 5.86458 6.45833 5.5 7.5 5.5C8.54167 5.5 9.42708 5.86458 10.1562 6.59375C10.8854 7.32292 11.25 8.20833 11.25 9.25C11.25 10.2708 10.8854 11.151 10.1562 11.8906C9.42708 12.6302 8.54167 13 7.5 13ZM8.39062 10.1406C8.15104 10.3802 7.85417 10.5 7.5 10.5C7.14583 10.5 6.84896 10.3802 6.60938 10.1406C6.36979 9.90104 6.25 9.60417 6.25 9.25C6.25 8.89583 6.36979 8.59896 6.60938 8.35937C6.84896 8.11979 7.14583 8 7.5 8C7.85417 8 8.15104 8.11979 8.39062 8.35937C8.63021 8.59896 8.75 8.89583 8.75 9.25C8.75 9.60417 8.63021 9.90104 8.39062 10.1406Z" fill="#F9D067"/>
</svg>
