<svg width="30" height="30" viewBox="0 0 30 30" fill="none" xmlns="http://www.w3.org/2000/svg">
<g clip-path="url(#clip0_772_3078)">
<path d="M13.8751 15.1C10.9626 9.4625 13.2501 4.5 14.5376 2.5125C7.8376 2.75 2.4751 8.2375 2.4751 15C2.4751 15.175 2.5001 15.35 2.5001 15.525C3.2751 15.1875 4.1126 15 5.0001 15C7.0751 15 8.9751 16.0375 10.1251 17.6875C12.2126 18.2875 13.7501 20.2125 13.7501 22.5C13.7501 24.4 12.6626 26.0375 11.1001 26.8875C12.3251 27.2875 13.6376 27.5125 14.9876 27.5125C19.3626 27.5125 23.2126 25.2625 25.4501 21.8625C22.5001 22.15 16.7251 20.65 13.8751 15.1Z" fill="#E3EF9C"/>
<path d="M8.75 20H8.525C8 18.55 6.625 17.5 5 17.5C2.925 17.5 1.25 19.175 1.25 21.25C1.25 23.325 2.925 25 5 25H8.75C10.125 25 11.25 23.875 11.25 22.5C11.25 21.125 10.125 20 8.75 20Z" fill="#B7D4FF"/>
</g>
<defs>
<clipPath id="clip0_772_3078">
<rect width="30" height="30" fill="white"/>
</clipPath>
</defs>
</svg>
