<svg width="12" height="16" viewBox="0 0 12 16" fill="none" xmlns="http://www.w3.org/2000/svg">
<path fill-rule="evenodd" clip-rule="evenodd" d="M5.19892 0.891402C5.31611 0.77436 5.47496 0.708618 5.64059 0.708618C5.80622 0.708618 5.96507 0.77436 6.08226 0.891402L11.0823 5.8914C11.1437 5.94862 11.1929 6.01762 11.2271 6.09429C11.2612 6.17095 11.2796 6.25371 11.2811 6.33763C11.2826 6.42155 11.2671 6.50491 11.2357 6.58273C11.2043 6.66056 11.1575 6.73125 11.0981 6.7906C11.0388 6.84995 10.9681 6.89674 10.8903 6.92817C10.8124 6.9596 10.7291 6.97504 10.6452 6.97356C10.5612 6.97208 10.4785 6.95371 10.4018 6.91955C10.3251 6.88539 10.2561 6.83614 10.1989 6.77473L6.26559 2.8414V14.6664C6.26559 14.8322 6.19974 14.9911 6.08253 15.1083C5.96532 15.2256 5.80635 15.2914 5.64059 15.2914C5.47483 15.2914 5.31586 15.2256 5.19865 15.1083C5.08144 14.9911 5.01559 14.8322 5.01559 14.6664V2.8414L1.08226 6.77473C1.02504 6.83614 0.956038 6.88539 0.879372 6.91955C0.802706 6.95371 0.719945 6.97208 0.636026 6.97356C0.552106 6.97504 0.468749 6.9596 0.390925 6.92817C0.313102 6.89674 0.242407 6.84995 0.183058 6.7906C0.123709 6.73125 0.076922 6.66056 0.0454878 6.58273C0.0140536 6.50491 -0.00138338 6.42155 9.72687e-05 6.33763C0.00157792 6.25371 0.0199459 6.17095 0.0541058 6.09429C0.0882658 6.01762 0.137518 5.94862 0.198923 5.8914L5.19892 0.891402Z" fill="#FF3939"/>
</svg>
