<svg width="12" height="15" viewBox="0 0 12 15" fill="none" xmlns="http://www.w3.org/2000/svg">
<path fill-rule="evenodd" clip-rule="evenodd" d="M5.19886 0.182783C5.31605 0.0657414 5.4749 0 5.64053 0C5.80615 0 5.96501 0.0657414 6.0822 0.182783L11.0822 5.18278C11.1436 5.24 11.1929 5.309 11.227 5.38567C11.2612 5.46233 11.2795 5.5451 11.281 5.62902C11.2825 5.71293 11.2671 5.79629 11.2356 5.87411C11.2042 5.95194 11.1574 6.02263 11.0981 6.08198C11.0387 6.14133 10.968 6.18812 10.8902 6.21955C10.8124 6.25099 10.729 6.26642 10.6451 6.26494C10.5612 6.26346 10.4784 6.24509 10.4017 6.21093C10.3251 6.17677 10.2561 6.12752 10.1989 6.06612L6.26553 2.13278V13.9578C6.26553 14.1235 6.19968 14.2825 6.08247 14.3997C5.96526 14.5169 5.80629 14.5828 5.64053 14.5828C5.47477 14.5828 5.3158 14.5169 5.19859 14.3997C5.08138 14.2825 5.01553 14.1235 5.01553 13.9578V2.13278L1.0822 6.06612C1.02498 6.12752 0.955977 6.17677 0.879311 6.21093C0.802645 6.24509 0.719884 6.26346 0.635965 6.26494C0.552045 6.26642 0.468688 6.25099 0.390864 6.21955C0.313041 6.18812 0.242346 6.14133 0.182997 6.08198C0.123648 6.02263 0.0768609 5.95194 0.0454268 5.87411C0.0139926 5.79629 -0.00144442 5.71293 3.62336e-05 5.62902C0.00151689 5.5451 0.0198848 5.46233 0.0540448 5.38567C0.0882048 5.309 0.137457 5.24 0.198862 5.18278L5.19886 0.182783Z" fill="#FF3939"/>
</svg>
