<svg width="20" height="20" viewBox="0 0 20 20" fill="none" xmlns="http://www.w3.org/2000/svg">
<path d="M6.66666 1.66668L6.37166 1.37168L6.66666 1.07751L6.96166 1.37168L6.66666 1.66668ZM7.08333 14.1667C7.08333 14.2772 7.03943 14.3832 6.96129 14.4613C6.88315 14.5394 6.77717 14.5833 6.66666 14.5833C6.55616 14.5833 6.45018 14.5394 6.37204 14.4613C6.2939 14.3832 6.25 14.2772 6.25 14.1667H7.08333ZM3.03833 4.70501L6.37166 1.37168L6.96166 1.96168L3.62833 5.29501L3.03833 4.70501ZM6.96166 1.37168L10.295 4.70501L9.705 5.29501L6.37166 1.96168L6.96166 1.37168ZM7.08333 1.66668V14.1667H6.25V1.66668H7.08333ZM13.3333 18.3333L13.0383 18.6283L13.3333 18.9225L13.6283 18.6283L13.3333 18.3333ZM13.75 5.83335C13.75 5.72284 13.7061 5.61686 13.628 5.53872C13.5498 5.46058 13.4438 5.41668 13.3333 5.41668C13.2228 5.41668 13.1168 5.46058 13.0387 5.53872C12.9606 5.61686 12.9167 5.72284 12.9167 5.83335H13.75ZM9.705 15.295L13.0383 18.6283L13.6283 18.0383L10.295 14.705L9.705 15.295ZM13.6283 18.6283L16.9617 15.295L16.3717 14.705L13.0383 18.0383L13.6283 18.6283ZM13.75 18.3333V5.83335H12.9167V18.3333H13.75Z" fill="#303030"/>
</svg>
